<svg xmlns="http://www.w3.org/2000/svg" xmlns:xlink="http://www.w3.org/1999/xlink" xmlns:lucid="lucid" width="1020" height="680"><g transform="translate(440 -160)" lucid:page-tab-id=".LxZafbimmoW"><path d="M-420 186a6 6 0 0 1 6-6h968a6 6 0 0 1 6 6v628a6 6 0 0 1-6 6h-968a6 6 0 0 1-6-6z" stroke="#3a414a" stroke-width="5" fill="#fff"/><path d="M-28 359a6 6 0 0 1 6-6h188a6 6 0 0 1 6 6v46.67a6 6 0 0 1-6 6H-22a6 6 0 0 1-6-6z" stroke="#3a414a" fill="#fff"/><use xlink:href="#a" transform="matrix(1,0,0,1,-15.999999999999915,365.0102686153391) translate(23.993827160493822 22.15277777777778)"/><path d="M-28 266a6 6 0 0 1 6-6h188a6 6 0 0 1 6 6v48a6 6 0 0 1-6 6H-22a6 6 0 0 1-6-6z" stroke="#3a414a" fill="#fff"/><use xlink:href="#b" transform="matrix(1,0,0,1,-16,272) translate(9.827160493827165 22.27777777777778)"/><path d="M-28 476.32a6 6 0 0 1 6-6h168a6 6 0 0 1 6 6v48a6 6 0 0 1-6 6H-22a6 6 0 0 1-6-6z" stroke="#3a414a" fill="#fff"/><use xlink:href="#c" transform="matrix(1,0,0,1,-15.999999999999915,482.3230647179946) translate(26.58024691358024 22.27777777777778)"/><path d="M-264.8 403.6a8 8 0 0 1 9.6 0l70.4 52.8a4.5 4.5 0 0 1 0 7.2l-70.4 52.8a8 8 0 0 1-9.6 0l-70.4-52.8a4.5 4.5 0 0 1 0-7.2z" stroke="#3a414a" fill="#fff"/><use xlink:href="#d" transform="matrix(1,0,0,1,-335,405) translate(30.65314814814814 59.02777777777778)"/><path d="M220 586a6 6 0 0 1 6-6h228a6 6 0 0 1 6 6v48a6 6 0 0 1-6 6H226a6 6 0 0 1-6-6z" stroke="#3a414a" fill="#fff"/><use xlink:href="#e" transform="matrix(1,0,0,1,232,592) translate(8.771604938271594 22.27777777777778)"/><use xlink:href="#f" transform="matrix(1,0,0,1,232,592) translate(119.69753086419753 22.27777777777778)"/><path d="M220 476.32a6 6 0 0 1 6-6h228a6 6 0 0 1 6 6v48a6 6 0 0 1-6 6H226a6 6 0 0 1-6-6z" stroke="#3a414a" fill="#fff"/><use xlink:href="#g" transform="matrix(1,0,0,1,232,482.32306471799467) translate(17.41358024691357 22.40277777777778)"/><use xlink:href="#h" transform="matrix(1,0,0,1,232,482.32306471799467) translate(144.3888888888889 22.40277777777778)"/><path d="M-212 680c17.67 0 32 13.43 32 30s-14.33 30-32 30h-96c-17.67 0-32-13.43-32-30s14.33-30 32-30z" stroke="#3a414a" fill="#fff"/><use xlink:href="#i" transform="matrix(1,0,0,1,-335,685) translate(50.308641975308646 30.27777777777778)"/><path d="M-340 226a6 6 0 0 1 6-6h148a6 6 0 0 1 6 6v114c-26.72-20.04-43.36-20.04-53.44-20.04-16 0-37.28 20.04-53.28 20.04-9.92 0-26.72 0-53.28-20.04z" stroke="#3a414a" fill="#fff"/><use xlink:href="#j" transform="matrix(1,0,0,1,-335,225) translate(50.308641975308646 48.71527777777778)"/><path d="M-260 330.82v54.3" stroke="#3a414a" stroke-linejoin="round" fill="none"/><path d="M-259.5 330.84h-1v-.27l1-.5z" stroke="#3a414a" stroke-width=".05" fill="#3a414a"/><path d="M-260 399.88l-4.64-14.26h9.28z" stroke="#3a414a" fill="#3a414a"/><path d="M-80.38 290.55l-19.95.02-.82.2-.8.33-.73.45-.66.56-.56.67-.45.73-.33.8-.2.84-.07.88-.08 158.98-.24 1-.4.95-.52.87-.65.78-.78.66-.87.53-.94.38-1 .24-1 .08H-182v-1h70.53l.88-.07.85-.2.8-.33.73-.45.66-.56.56-.67.45-.73.33-.8.2-.82.07-158.9.08-1 .23-1 .4-.93.53-.87.65-.78.78-.66.87-.53.94-.38 1-.25 20.08-.02zm35.53-.05l-22.74.03v-1l22.75-.03z" stroke="#3a414a" stroke-width=".05" fill="#3a414a"/><path d="M-182 460.5h-.54l.04-.5-.04-.5h.55z" fill="#3a414a"/><path d="M-181.96 460.52h-.6l.04-.52-.05-.52h.6zm-.56-1l.05.48-.05.48h.5v-.96z" stroke="#3a414a" stroke-width=".05" fill="#3a414a"/><path d="M-30.08 290l-14.27 4.64v-9.28z" fill="#3a414a"/><path d="M-28.46 290l-16.4 5.32v-10.64zm-15.4 3.95L-31.7 290l-12.15-3.95z" stroke="#3a414a" stroke-width=".05" fill="#3a414a"/><use xlink:href="#k" transform="matrix(1,0,0,1,-80.37714547932936,279.3333333333333) translate(0 14.222222222222223)"/><path d="M-79.38 382.84h-20.08l-.88.07-.84.2-.8.34-.73.45-.67.55-.56.66-.45.74-.33.8-.2.82-.08 66.56-.08 1-.24 1-.4.93-.52.87-.66.78-.78.66-.87.53-.94.38-1 .25-71.53.07v-1l71.4-.07.82-.2.8-.33.73-.45.66-.56.57-.67.45-.73.33-.8.2-.84.07-.88.07-66.64.24-1 .4-.95.52-.88.66-.78.78-.66.87-.53.94-.4 1-.23 1-.08h20.12zm34.53 0H-66.6v-1h21.75z" stroke="#3a414a" stroke-width=".05" fill="#3a414a"/><path d="M-30.08 382.34l-14.27 4.63v-9.27z" fill="#3a414a"/><path d="M-28.46 382.34l-16.4 5.32V377zm-15.4 3.95l12.16-3.96-12.15-3.95z" stroke="#3a414a" stroke-width=".05" fill="#3a414a"/><path d="M-182 460.5h-.54l.04-.5-.04-.5h.55z" fill="#3a414a"/><path d="M-181.96 460.52h-.6l.04-.52-.05-.52h.6zm-.56-1l.05.48-.05.48h.5v-.96z" stroke="#3a414a" stroke-width=".05" fill="#3a414a"/><use xlink:href="#l" transform="matrix(1,0,0,1,-79.383915323304,371.67180096341474) translate(0 14.222222222222223)"/><path d="M-110.48 459.57l1 .25.95.4.87.52.78.66.66.78.53.87.4.94.24.98.08 1 .07 29.22.2.82.32.8.45.73.56.66.66.57.72.45.8.33.84.2.88.07h19.08v1H-99.5l-1-.08-1-.23-.93-.38-.87-.54-.78-.66-.66-.78-.53-.87-.4-.94-.24-1-.08-29.3-.07-.9-.2-.83-.33-.8-.45-.73-.56-.66-.65-.55-.73-.45-.8-.33-.82-.2-71.4-.07v-1zm65.63 40.25v1H-65.6v-1z" stroke="#3a414a" stroke-width=".05" fill="#3a414a"/><path d="M-30.08 500.32l-14.27 4.64v-9.27z" fill="#3a414a"/><path d="M-28.46 500.32l-16.4 5.33V495zm-15.4 3.95l12.16-3.95-12.15-3.94z" stroke="#3a414a" stroke-width=".05" fill="#3a414a"/><path d="M-182 460.5h-.54l.04-.5-.04-.5h.55z" fill="#3a414a"/><path d="M-181.96 460.52h-.6l.04-.52-.05-.52h.6zm-.56-1l.05.48-.05.48h.5v-.96z" stroke="#3a414a" stroke-width=".05" fill="#3a414a"/><use xlink:href="#m" transform="matrix(1,0,0,1,-80.37637969948244,489.6563980513279) translate(0 14.222222222222223)"/><path d="M152.96 500.32h50.19" stroke="#3a414a" fill="none"/><path d="M152.98 500.82h-.52v-1h.52z" stroke="#3a414a" stroke-width=".05" fill="#3a414a"/><path d="M217.92 500.32l-14.27 4.64v-9.27z" stroke="#3a414a" fill="#3a414a"/><path d="M-28 586a6 6 0 0 1 6-6h168a6 6 0 0 1 6 6v48a6 6 0 0 1-6 6H-22a6 6 0 0 1-6-6z" stroke="#3a414a" fill="#fff"/><use xlink:href="#c" transform="matrix(1,0,0,1,-16,592) translate(26.58024691358024 22.27777777777778)"/><path d="M-110.48 459.57l1 .25.95.4.87.52.78.66.66.78.53.87.4.94.24.98.08 1 .07 138.9.2.82.32.8.45.73.56.66.66.55.72.45.8.33.84.2.88.07h24.07v1h-24.1l-1-.08-1-.24-.93-.4-.87-.52-.78-.66-.66-.78-.53-.87-.4-.94-.24-1-.08-138.98-.07-.88-.2-.84-.33-.8-.45-.73-.56-.66-.65-.55-.73-.45-.8-.33-.82-.2-71.4-.07v-1zm65.63 149.93v1h-19.72v-1z" stroke="#3a414a" stroke-width=".05" fill="#3a414a"/><path d="M-30.08 610l-14.27 4.64v-9.28z" fill="#3a414a"/><path d="M-28.46 610l-16.4 5.32v-10.64zm-15.4 3.95L-31.7 610l-12.15-3.95z" stroke="#3a414a" stroke-width=".05" fill="#3a414a"/><path d="M-182 460.5h-.54l.04-.5-.04-.5h.55z" fill="#3a414a"/><path d="M-181.96 460.52h-.6l.04-.52-.05-.52h.6zm-.56-1l.05.48-.05.48h.5v-.96z" stroke="#3a414a" stroke-width=".05" fill="#3a414a"/><use xlink:href="#n" transform="matrix(1,0,0,1,-75.38897938592063,599.3333333333334) translate(0 14.222222222222223)"/><path d="M495.02 289.58l1 .24.93.4.87.52.78.66.66.78.53.87.38.94.25 1 .07 499.02-.08 1-.24 1-.4.93-.52.87-.66.78-.78.66-.87.53-.94.38-1 .25-866.62.07-1-.08-1-.24-.93-.4-.87-.52-.77-.66-.66-.78-.53-.87-.38-.94-.24-1-.08-329.02.08-1 .24-1 .4-.93.52-.87.67-.78.78-.66.87-.53.94-.38 1-.25 18.7-.07.02 1-18.6.07-.82.2-.8.33-.73.45-.65.56-.56.67-.46.73-.33.8-.2.84-.07.88.08 328.86.2.82.32.8.46.73.56.66.65.55.74.45.8.33.84.2.88.07 866.46-.07.82-.2.8-.33.73-.45.66-.56.55-.67.45-.73.33-.8.2-.84.07-.88-.07-498.86-.2-.82-.33-.8-.45-.73-.56-.66-.67-.55-.73-.45-.8-.33-.84-.2-.88-.07H172.96v-1h321.06z" stroke="#3a414a" stroke-width=".05" fill="#3a414a"/><path d="M172.98 290.5h-.52v-1h.52z" fill="#3a414a"/><path d="M173 290.52h-.56v-1.04h.56zm-.5-1v.96h.45v-.96z" stroke="#3a414a" stroke-width=".05" fill="#3a414a"/><path d="M-339.12 460l-14.27 4.64v-9.28z" fill="#3a414a"/><path d="M-337.5 460l-16.4 5.32v-10.64zm-15.4 3.95l12.16-3.95-12.15-3.95z" stroke="#3a414a" stroke-width=".05" fill="#3a414a"/><path d="M495.02 381.92l1 .24.93.4.87.52.78.66.66.78.53.87.38.93.25 1 .07 406.7-.08 1-.24.98-.4.95-.52.87-.66.78-.78.66-.87.53-.94.38-1 .25-866.62.07-1-.08-1-.24-.93-.4-.87-.52-.77-.66-.66-.78-.53-.87-.38-.94-.24-1-.08-329.02.08-1 .24-1 .4-.93.52-.87.67-.78.78-.66.87-.53.94-.38 1-.25 18.7-.07.02 1-18.6.07-.82.2-.8.33-.73.45-.65.56-.56.67-.46.73-.33.8-.2.84-.07.88.08 328.86.2.82.32.8.46.73.56.66.65.55.74.45.8.33.84.2.88.07 866.46-.07.82-.2.8-.33.73-.45.66-.56.55-.67.45-.73.33-.8.2-.84.07-.88-.07-406.52-.2-.82-.33-.8-.45-.73-.56-.65-.67-.56-.73-.46-.8-.33-.84-.2-.88-.06H172.96v-1h321.06z" stroke="#3a414a" stroke-width=".05" fill="#3a414a"/><path d="M172.98 382.84h-.52v-1h.52z" fill="#3a414a"/><path d="M173 382.86h-.56v-1.05h.56zm-.5-1v.95h.45v-.94z" stroke="#3a414a" stroke-width=".05" fill="#3a414a"/><path d="M-339.12 460l-14.27 4.64v-9.28z" fill="#3a414a"/><path d="M-337.5 460l-16.4 5.32v-10.64zm-15.4 3.95l12.16-3.95-12.15-3.95z" stroke="#3a414a" stroke-width=".05" fill="#3a414a"/><path d="M-353.88 460.5l-18.6.07-.82.2-.8.33-.73.45-.65.56-.56.67-.46.73-.33.8-.2.84-.07.88.08 328.86.2.82.32.8.46.73.56.66.65.55.74.45.8.33.84.2.88.07 866.96-.07.82-.2.8-.33.73-.45.66-.56.55-.67.45-.73.33-.8.2-.84.07-.88-.07-288.54-.2-.82-.33-.8-.45-.73-.56-.66-.67-.57-.73-.45-.8-.33-.84-.2-.88-.08h-33.52v-1h33.56l1 .08 1 .24.93.4.87.52.78.67.66.77.53.87.38.94.25 1.03.07 288.7-.08 1-.24.98-.4.95-.52.87-.66.78-.78.66-.87.53-.94.38-1 .25-867.12.07-1-.08-1-.24-.93-.4-.87-.52-.77-.66-.66-.78-.53-.87-.38-.94-.24-1-.08-329.02.08-1 .24-1 .4-.93.52-.87.67-.78.78-.66.87-.53.94-.38 1-.25 18.7-.07z" stroke="#3a414a" stroke-width=".05" fill="#3a414a"/><path d="M460.98 500.82h-.52v-1h.52z" fill="#3a414a"/><path d="M461 500.85h-.56v-1.05h.56zm-.5-1v.95h.45v-.95z" stroke="#3a414a" stroke-width=".05" fill="#3a414a"/><path d="M-339.12 460l-14.27 4.64v-9.28z" fill="#3a414a"/><path d="M-337.5 460l-16.4 5.32v-10.64zm-15.4 3.95l12.16-3.95-12.15-3.95z" stroke="#3a414a" stroke-width=".05" fill="#3a414a"/><path d="M-353.88 460.5l-18.6.07-.82.2-.8.33-.73.45-.65.56-.56.67-.46.73-.33.8-.2.84-.07.88.08 328.86.2.82.32.8.46.73.56.66.65.55.74.45.8.33.84.2.88.07 866.96-.07.82-.2.8-.33.73-.45.66-.56.55-.67.45-.73.33-.8.2-.84.07-.88-.07-178.86-.2-.82-.33-.8-.45-.73-.56-.66-.67-.55-.73-.45-.8-.33-.84-.2-.88-.07h-33.52v-1h33.56l1 .08 1 .24.93.4.87.52.78.66.66.78.53.87.38.94.25 1 .07 179.02-.08 1-.24 1-.4.93-.52.87-.66.78-.78.66-.87.53-.94.38-1 .25-867.12.07-1-.08-1-.24-.93-.4-.87-.52-.77-.66-.66-.78-.53-.87-.38-.94-.24-1-.08-329.02.08-1 .24-1 .4-.93.52-.87.67-.78.78-.66.87-.53.94-.38 1-.25 18.7-.07z" stroke="#3a414a" stroke-width=".05" fill="#3a414a"/><path d="M460.98 610.5h-.52v-1h.52z" fill="#3a414a"/><path d="M461 610.52h-.56v-1.04h.56zm-.5-1v.96h.45v-.96z" stroke="#3a414a" stroke-width=".05" fill="#3a414a"/><path d="M-339.12 460l-14.27 4.64v-9.28z" fill="#3a414a"/><path d="M-337.5 460l-16.4 5.32v-10.64zm-15.4 3.95l12.16-3.95-12.15-3.95z" stroke="#3a414a" stroke-width=".05" fill="#3a414a"/><path d="M152.96 610h50.2" stroke="#3a414a" fill="none"/><path d="M152.98 610.5h-.52v-1h.52z" stroke="#3a414a" stroke-width=".05" fill="#3a414a"/><path d="M217.92 610l-14.27 4.64v-9.28z" stroke="#3a414a" fill="#3a414a"/><path d="M-259.5 663.12h-1v-53.45h1zm0-74.8h-1V519h1z" stroke="#3a414a" stroke-width=".05" fill="#3a414a"/><path d="M-260 518.5l.5-.03v.54h-1v-.53z" fill="#3a414a"/><path d="M-260 518.48l.52-.04v.6h-1.04v-.6zm-.48.5h.96v-.48l-.48.03-.48-.03z" stroke="#3a414a" stroke-width=".05" fill="#3a414a"/><path d="M-260 677.88l-4.64-14.26h9.28z" fill="#3a414a"/><path d="M-260 679.5l-5.32-16.38h10.64zm-3.95-15.38l3.95 12.14 3.95-12.14z" stroke="#3a414a" stroke-width=".05" fill="#3a414a"/><use xlink:href="#o" transform="matrix(1,0,0,1,-278.24691358024694,588.3338415626) translate(0 14.222222222222223)"/><path d="M260 226a6 6 0 0 1 6-6h228a6 6 0 0 1 6 6v48a6 6 0 0 1-6 6H266a6 6 0 0 1-6-6z" stroke="#000" stroke-opacity="0" fill="#fff" fill-opacity="0"/><use xlink:href="#p" transform="matrix(1,0,0,1,265,225) translate(102.0802469135803 30.222222222222214)"/><use xlink:href="#q" transform="matrix(1,0,0,1,265,225) translate(209.01234567901236 30.222222222222214)"/><path d="M-28 686a6 6 0 0 1 6-6h476a6 6 0 0 1 6 6v46.66a6 6 0 0 1-6 6H-22a6 6 0 0 1-6-6z" stroke="#3a414a" fill="#fff"/><use xlink:href="#r" transform="matrix(1,0,0,1,-15.999999999999886,692) translate(70.05555555555554 22.15277777777778)"/><use xlink:href="#s" transform="matrix(1,0,0,1,-15.999999999999886,692) translate(130.54938271604937 22.15277777777778)"/><use xlink:href="#t" transform="matrix(1,0,0,1,-15.999999999999886,692) translate(149.68518518518516 22.15277777777778)"/><use xlink:href="#s" transform="matrix(1,0,0,1,-15.999999999999886,692) translate(210.179012345679 22.15277777777778)"/><use xlink:href="#u" transform="matrix(1,0,0,1,-15.999999999999886,692) translate(229.3148148148148 22.15277777777778)"/><use xlink:href="#s" transform="matrix(1,0,0,1,-15.999999999999886,692) translate(362.462962962963 22.15277777777778)"/><use xlink:href="#v" transform="matrix(1,0,0,1,-15.999999999999886,692) translate(381.5987654320988 22.15277777777778)"/><path d="M-44.85 708.83v1l-18.73-.03v-1zm-65.6-249.25l.98.24.94.4.87.52.78.66.66.78.53.87.4.94.25 1 .07 238.3.07.9.2.83.32.8.45.73.56.66.66.56.72.45.8.33.82.2 24 .03v1l-24.12-.05-1-.24-.95-.38-.87-.53-.78-.67-.66-.78-.53-.87-.4-.94-.23-1-.08-1-.07-238.22-.2-.82-.33-.8-.45-.73-.56-.66-.65-.55-.73-.45-.8-.33-.84-.2-.88-.07H-182v-1h70.54z" stroke="#3a414a" stroke-width=".05" fill="#3a414a"/><path d="M-182 460.5h-.54l.04-.5-.04-.5h.55z" fill="#3a414a"/><path d="M-181.96 460.52h-.6l.04-.52-.05-.52h.6zm-.56-1l.05.48-.05.48h.5v-.96z" stroke="#3a414a" stroke-width=".05" fill="#3a414a"/><path d="M-30.08 709.33l-14.27 4.63v-9.27z" fill="#3a414a"/><path d="M-28.46 709.33l-16.4 5.32V704zm-15.4 3.95l12.16-3.95-12.15-3.95z" stroke="#3a414a" stroke-width=".05" fill="#3a414a"/><g><use xlink:href="#w" transform="matrix(1,0,0,1,-76.37225723479882,698.6615323589973) translate(0 14.222222222222223)"/></g><path d="M-353.88 460.5l-18.6.07-.82.2-.8.33-.73.45-.65.56-.56.67-.46.73-.33.8-.2.84-.07.88.08 328.86.2.82.32.8.46.73.56.66.65.55.74.45.8.33.84.2.88.07 866.96-.07.82-.2.8-.33.73-.45.66-.56.55-.67.45-.73.33-.8.2-.84.07-.88-.07-79.53-.2-.82-.33-.8-.45-.73-.56-.66-.67-.56-.73-.45-.8-.33-.84-.2-.88-.07h-33.52v-1h33.56l1 .08 1 .24.93.4.87.53.78.66.66.78.53.88.38.94.25 1 .07 79.7-.08 1-.24 1-.4.93-.52.87-.66.78-.78.66-.87.53-.94.38-1 .25-867.12.07-1-.08-1-.24-.93-.4-.87-.52-.77-.66-.66-.78-.53-.87-.38-.94-.24-1-.08-329.02.08-1 .24-1 .4-.93.52-.87.67-.78.78-.66.87-.53.94-.38 1-.25 18.7-.07z" stroke="#3a414a" stroke-width=".05" fill="#3a414a"/><path d="M460.98 709.83h-.52v-1h.52z" fill="#3a414a"/><path d="M461 709.85h-.56v-1.05h.56zm-.5-1v.95h.45v-.95z" stroke="#3a414a" stroke-width=".05" fill="#3a414a"/><path d="M-339.12 460l-14.27 4.64v-9.28z" fill="#3a414a"/><path d="M-337.5 460l-16.4 5.32v-10.64zm-15.4 3.95l12.16-3.95-12.15-3.95z" stroke="#3a414a" stroke-width=".05" fill="#3a414a"/><defs><path fill="#3a414a" d="M115-194c55 1 70 41 70 98S169 2 115 4C84 4 66-9 55-30l1 105H24l-1-265h31l2 30c10-21 28-34 59-34zm-8 174c40 0 45-34 45-75s-6-73-45-74c-42 0-51 32-51 76 0 43 10 73 51 73" id="x"/><path fill="#3a414a" d="M100-194c63 0 86 42 84 106H49c0 40 14 67 53 68 26 1 43-12 49-29l28 8c-11 28-37 45-77 45C44 4 14-33 15-96c1-61 26-98 85-98zm52 81c6-60-76-77-97-28-3 7-6 17-6 28h103" id="y"/><path fill="#3a414a" d="M117-194c89-4 53 116 60 194h-32v-121c0-31-8-49-39-48C34-167 62-67 57 0H25l-1-190h30c1 10-1 24 2 32 11-22 29-35 61-36" id="z"/><path fill="#3a414a" d="M33 0v-38h34V0H33" id="A"/><path fill="#3a414a" d="M135-143c-3-34-86-38-87 0 15 53 115 12 119 90S17 21 10-45l28-5c4 36 97 45 98 0-10-56-113-15-118-90-4-57 82-63 122-42 12 7 21 19 24 35" id="B"/><path fill="#3a414a" d="M59-47c-2 24 18 29 38 22v24C64 9 27 4 27-40v-127H5v-23h24l9-43h21v43h35v23H59v120" id="C"/><path fill="#3a414a" d="M141-36C126-15 110 5 73 4 37 3 15-17 15-53c-1-64 63-63 125-63 3-35-9-54-41-54-24 1-41 7-42 31l-33-3c5-37 33-52 76-52 45 0 72 20 72 64v82c-1 20 7 32 28 27v20c-31 9-61-2-59-35zM48-53c0 20 12 33 32 33 41-3 63-29 60-74-43 2-92-5-92 41" id="D"/><path fill="#3a414a" d="M18-150v-26h174v26H18zm0 90v-26h174v26H18" id="E"/><path fill="#3a414a" d="M84 4C-5 8 30-112 23-190h32v120c0 31 7 50 39 49 72-2 45-101 50-169h31l1 190h-30c-1-10 1-25-2-33-11 22-28 36-60 37" id="F"/><g id="a"><use transform="matrix(0.06172839506172839,0,0,0.06172839506172839,0,0)" xlink:href="#x"/><use transform="matrix(0.06172839506172839,0,0,0.06172839506172839,12.345679012345679,0)" xlink:href="#y"/><use transform="matrix(0.06172839506172839,0,0,0.06172839506172839,24.691358024691358,0)" xlink:href="#z"/><use transform="matrix(0.06172839506172839,0,0,0.06172839506172839,37.03703703703704,0)" xlink:href="#A"/><use transform="matrix(0.06172839506172839,0,0,0.06172839506172839,43.20987654320988,0)" xlink:href="#B"/><use transform="matrix(0.06172839506172839,0,0,0.06172839506172839,54.32098765432099,0)" xlink:href="#C"/><use transform="matrix(0.06172839506172839,0,0,0.06172839506172839,60.49382716049383,0)" xlink:href="#D"/><use transform="matrix(0.06172839506172839,0,0,0.06172839506172839,72.8395061728395,0)" xlink:href="#C"/><use transform="matrix(0.06172839506172839,0,0,0.06172839506172839,79.01234567901234,0)" xlink:href="#y"/><use transform="matrix(0.06172839506172839,0,0,0.06172839506172839,91.35802469135803,0)" xlink:href="#E"/><use transform="matrix(0.06172839506172839,0,0,0.06172839506172839,104.32098765432099,0)" xlink:href="#F"/><use transform="matrix(0.06172839506172839,0,0,0.06172839506172839,116.66666666666667,0)" xlink:href="#x"/></g><path fill="#3a414a" d="M85-194c31 0 48 13 60 33l-1-100h32l1 261h-30c-2-10 0-23-3-31C134-8 116 4 85 4 32 4 16-35 15-94c0-66 23-100 70-100zm9 24c-40 0-46 34-46 75 0 40 6 74 45 74 42 0 51-32 51-76 0-42-9-74-50-73" id="G"/><path fill="#3a414a" d="M100-194c62-1 85 37 85 99 1 63-27 99-86 99S16-35 15-95c0-66 28-99 85-99zM99-20c44 1 53-31 53-75 0-43-8-75-51-75s-53 32-53 75 10 74 51 75" id="H"/><path fill="#3a414a" d="M206 0h-36l-40-164L89 0H53L-1-190h32L70-26l43-164h34l41 164 42-164h31" id="I"/><g id="b"><use transform="matrix(0.06172839506172839,0,0,0.06172839506172839,0,0)" xlink:href="#x"/><use transform="matrix(0.06172839506172839,0,0,0.06172839506172839,12.345679012345679,0)" xlink:href="#y"/><use transform="matrix(0.06172839506172839,0,0,0.06172839506172839,24.691358024691358,0)" xlink:href="#z"/><use transform="matrix(0.06172839506172839,0,0,0.06172839506172839,37.03703703703704,0)" xlink:href="#A"/><use transform="matrix(0.06172839506172839,0,0,0.06172839506172839,43.20987654320988,0)" xlink:href="#B"/><use transform="matrix(0.06172839506172839,0,0,0.06172839506172839,54.32098765432099,0)" xlink:href="#C"/><use transform="matrix(0.06172839506172839,0,0,0.06172839506172839,60.49382716049383,0)" xlink:href="#D"/><use transform="matrix(0.06172839506172839,0,0,0.06172839506172839,72.8395061728395,0)" xlink:href="#C"/><use transform="matrix(0.06172839506172839,0,0,0.06172839506172839,79.01234567901234,0)" xlink:href="#y"/><use transform="matrix(0.06172839506172839,0,0,0.06172839506172839,91.35802469135803,0)" xlink:href="#E"/><use transform="matrix(0.06172839506172839,0,0,0.06172839506172839,104.32098765432099,0)" xlink:href="#G"/><use transform="matrix(0.06172839506172839,0,0,0.06172839506172839,116.66666666666667,0)" xlink:href="#H"/><use transform="matrix(0.06172839506172839,0,0,0.06172839506172839,129.01234567901236,0)" xlink:href="#I"/><use transform="matrix(0.06172839506172839,0,0,0.06172839506172839,145,0)" xlink:href="#z"/></g><path fill="#3a414a" d="M190 0L58-211 59 0H30v-248h39L202-35l-2-213h31V0h-41" id="J"/><path fill="#3a414a" d="M177-190C167-65 218 103 67 71c-23-6-38-20-44-43l32-5c15 47 100 32 89-28v-30C133-14 115 1 83 1 29 1 15-40 15-95c0-56 16-97 71-98 29-1 48 16 59 35 1-10 0-23 2-32h30zM94-22c36 0 50-32 50-73 0-42-14-75-50-75-39 0-46 34-46 75s6 73 46 73" id="K"/><path fill="#3a414a" d="M108 0H70L1-190h34L89-25l56-165h34" id="L"/><path fill="#3a414a" d="M24 0v-261h32V0H24" id="M"/><path fill="#3a414a" d="M87 75C49 33 22-17 22-94c0-76 28-126 65-167h31c-38 41-64 92-64 168S80 34 118 75H87" id="N"/><path fill="#3a414a" d="M33-261c38 41 65 92 65 168S71 34 33 75H2C39 34 66-17 66-93S39-220 2-261h31" id="O"/><g id="c"><use transform="matrix(0.06172839506172839,0,0,0.06172839506172839,0,0)" xlink:href="#J"/><use transform="matrix(0.06172839506172839,0,0,0.06172839506172839,15.987654320987653,0)" xlink:href="#E"/><use transform="matrix(0.06172839506172839,0,0,0.06172839506172839,28.950617283950614,0)" xlink:href="#K"/><use transform="matrix(0.06172839506172839,0,0,0.06172839506172839,41.29629629629629,0)" xlink:href="#y"/><use transform="matrix(0.06172839506172839,0,0,0.06172839506172839,53.64197530864197,0)" xlink:href="#C"/><use transform="matrix(0.06172839506172839,0,0,0.06172839506172839,59.81481481481481,0)" xlink:href="#L"/><use transform="matrix(0.06172839506172839,0,0,0.06172839506172839,70.92592592592592,0)" xlink:href="#D"/><use transform="matrix(0.06172839506172839,0,0,0.06172839506172839,83.27160493827161,0)" xlink:href="#M"/><use transform="matrix(0.06172839506172839,0,0,0.06172839506172839,88.14814814814815,0)" xlink:href="#N"/><use transform="matrix(0.06172839506172839,0,0,0.06172839506172839,95.49382716049384,0)" xlink:href="#O"/></g><path fill="#3a414a" d="M96-169c-40 0-48 33-48 73s9 75 48 75c24 0 41-14 43-38l32 2c-6 37-31 61-74 61-59 0-76-41-82-99-10-93 101-131 147-64 4 7 5 14 7 22l-32 3c-4-21-16-35-41-35" id="P"/><path fill="#3a414a" d="M106-169C34-169 62-67 57 0H25v-261h32l-1 103c12-21 28-36 61-36 89 0 53 116 60 194h-32v-121c2-32-8-49-39-48" id="Q"/><path fill="#3a414a" d="M114-163C36-179 61-72 57 0H25l-1-190h30c1 12-1 29 2 39 6-27 23-49 58-41v29" id="R"/><g id="d"><use transform="matrix(0.06172839506172839,0,0,0.06172839506172839,0,0)" xlink:href="#K"/><use transform="matrix(0.06172839506172839,0,0,0.06172839506172839,12.345679012345679,0)" xlink:href="#y"/><use transform="matrix(0.06172839506172839,0,0,0.06172839506172839,24.691358024691358,0)" xlink:href="#C"/><use transform="matrix(0.06172839506172839,0,0,0.06172839506172839,30.864197530864196,0)" xlink:href="#P"/><use transform="matrix(0.06172839506172839,0,0,0.06172839506172839,41.9753086419753,0)" xlink:href="#Q"/><use transform="matrix(0.06172839506172839,0,0,0.06172839506172839,54.32098765432098,0)" xlink:href="#D"/><use transform="matrix(0.06172839506172839,0,0,0.06172839506172839,66.66666666666666,0)" xlink:href="#R"/><use transform="matrix(0.06172839506172839,0,0,0.06172839506172839,74.01234567901234,0)" xlink:href="#N"/><use transform="matrix(0.06172839506172839,0,0,0.06172839506172839,81.35802469135803,0)" xlink:href="#O"/></g><g id="e"><use transform="matrix(0.06172839506172839,0,0,0.06172839506172839,0,0)" xlink:href="#x"/><use transform="matrix(0.06172839506172839,0,0,0.06172839506172839,12.345679012345679,0)" xlink:href="#y"/><use transform="matrix(0.06172839506172839,0,0,0.06172839506172839,24.691358024691358,0)" xlink:href="#z"/><use transform="matrix(0.06172839506172839,0,0,0.06172839506172839,37.03703703703704,0)" xlink:href="#A"/><use transform="matrix(0.06172839506172839,0,0,0.06172839506172839,43.20987654320988,0)" xlink:href="#C"/><use transform="matrix(0.06172839506172839,0,0,0.06172839506172839,49.38271604938272,0)" xlink:href="#F"/><use transform="matrix(0.06172839506172839,0,0,0.06172839506172839,61.7283950617284,0)" xlink:href="#R"/><use transform="matrix(0.06172839506172839,0,0,0.06172839506172839,69.07407407407408,0)" xlink:href="#z"/><use transform="matrix(0.06172839506172839,0,0,0.06172839506172839,81.41975308641976,0)" xlink:href="#N"/><use transform="matrix(0.06172839506172839,0,0,0.06172839506172839,88.76543209876544,0)" xlink:href="#J"/></g><g id="f"><use transform="matrix(0.06172839506172839,0,0,0.06172839506172839,0,0)" xlink:href="#G"/><use transform="matrix(0.06172839506172839,0,0,0.06172839506172839,12.345679012345679,0)" xlink:href="#y"/><use transform="matrix(0.06172839506172839,0,0,0.06172839506172839,24.691358024691358,0)" xlink:href="#K"/><use transform="matrix(0.06172839506172839,0,0,0.06172839506172839,37.03703703703704,0)" xlink:href="#R"/><use transform="matrix(0.06172839506172839,0,0,0.06172839506172839,44.382716049382715,0)" xlink:href="#y"/><use transform="matrix(0.06172839506172839,0,0,0.06172839506172839,56.72839506172839,0)" xlink:href="#y"/><use transform="matrix(0.06172839506172839,0,0,0.06172839506172839,69.07407407407408,0)" xlink:href="#B"/><use transform="matrix(0.06172839506172839,0,0,0.06172839506172839,80.18518518518519,0)" xlink:href="#O"/></g><path fill="#3a414a" d="M210-169c-67 3-38 105-44 169h-31v-121c0-29-5-50-35-48C34-165 62-65 56 0H25l-1-190h30c1 10-1 24 2 32 10-44 99-50 107 0 11-21 27-35 58-36 85-2 47 119 55 194h-31v-121c0-29-5-49-35-48" id="S"/><g id="g"><use transform="matrix(0.06172839506172839,0,0,0.06172839506172839,0,0)" xlink:href="#x"/><use transform="matrix(0.06172839506172839,0,0,0.06172839506172839,12.345679012345679,0)" xlink:href="#y"/><use transform="matrix(0.06172839506172839,0,0,0.06172839506172839,24.691358024691358,0)" xlink:href="#z"/><use transform="matrix(0.06172839506172839,0,0,0.06172839506172839,37.03703703703704,0)" xlink:href="#A"/><use transform="matrix(0.06172839506172839,0,0,0.06172839506172839,43.20987654320988,0)" xlink:href="#S"/><use transform="matrix(0.06172839506172839,0,0,0.06172839506172839,61.66666666666667,0)" xlink:href="#H"/><use transform="matrix(0.06172839506172839,0,0,0.06172839506172839,74.01234567901236,0)" xlink:href="#L"/><use transform="matrix(0.06172839506172839,0,0,0.06172839506172839,85.12345679012347,0)" xlink:href="#y"/><use transform="matrix(0.06172839506172839,0,0,0.06172839506172839,97.46913580246915,0)" xlink:href="#N"/><use transform="matrix(0.06172839506172839,0,0,0.06172839506172839,104.81481481481484,0)" xlink:href="#J"/></g><path fill="#3a414a" d="M24-231v-30h32v30H24zM24 0v-190h32V0H24" id="T"/><g id="h"><use transform="matrix(0.06172839506172839,0,0,0.06172839506172839,0,0)" xlink:href="#F"/><use transform="matrix(0.06172839506172839,0,0,0.06172839506172839,12.345679012345679,0)" xlink:href="#z"/><use transform="matrix(0.06172839506172839,0,0,0.06172839506172839,24.691358024691358,0)" xlink:href="#T"/><use transform="matrix(0.06172839506172839,0,0,0.06172839506172839,29.5679012345679,0)" xlink:href="#C"/><use transform="matrix(0.06172839506172839,0,0,0.06172839506172839,35.74074074074074,0)" xlink:href="#B"/><use transform="matrix(0.06172839506172839,0,0,0.06172839506172839,46.85185185185185,0)" xlink:href="#O"/></g><g id="i"><use transform="matrix(0.06172839506172839,0,0,0.06172839506172839,0,0)" xlink:href="#G"/><use transform="matrix(0.06172839506172839,0,0,0.06172839506172839,12.345679012345679,0)" xlink:href="#H"/><use transform="matrix(0.06172839506172839,0,0,0.06172839506172839,24.691358024691358,0)" xlink:href="#z"/><use transform="matrix(0.06172839506172839,0,0,0.06172839506172839,37.03703703703704,0)" xlink:href="#y"/></g><path fill="#3a414a" d="M33 0v-248h34V0H33" id="U"/><g id="j"><use transform="matrix(0.06172839506172839,0,0,0.06172839506172839,0,0)" xlink:href="#U"/><use transform="matrix(0.06172839506172839,0,0,0.06172839506172839,6.172839506172839,0)" xlink:href="#z"/><use transform="matrix(0.06172839506172839,0,0,0.06172839506172839,18.51851851851852,0)" xlink:href="#x"/><use transform="matrix(0.06172839506172839,0,0,0.06172839506172839,30.864197530864196,0)" xlink:href="#F"/><use transform="matrix(0.06172839506172839,0,0,0.06172839506172839,43.20987654320987,0)" xlink:href="#C"/></g><path fill="#333" d="M24-248c120-7 223 5 221 122C244-46 201 0 124 0H24v-248zM76-40c74 7 117-18 117-86 0-67-45-88-117-82v168" id="V"/><use transform="matrix(0.04938271604938272,0,0,0.04938271604938272,0,0)" xlink:href="#V" id="k"/><path fill="#333" d="M238-95c0 69-44 99-111 99C63 4 22-25 22-93v-155h51v151c-1 38 19 59 55 60 90 1 49-130 58-211h52v153" id="W"/><use transform="matrix(0.04938271604938272,0,0,0.04938271604938272,0,0)" xlink:href="#W" id="l"/><path fill="#333" d="M230 0l2-204L168 0h-37L68-204 70 0H24v-248h70l56 185 57-185h69V0h-46" id="X"/><use transform="matrix(0.04938271604938272,0,0,0.04938271604938272,0,0)" xlink:href="#X" id="m"/><path fill="#333" d="M136-208V0H84v-208H4v-40h212v40h-80" id="Y"/><use transform="matrix(0.04938271604938272,0,0,0.04938271604938272,0,0)" xlink:href="#Y" id="n"/><path fill="#333" d="M24 0v-248h195v40H76v63h132v40H76v65h150V0H24" id="Z"/><path fill="#333" d="M140-251c80 0 125 45 125 126S219 4 139 4C58 4 15-44 15-125s44-126 125-126zm-1 214c52 0 73-35 73-88 0-50-21-86-72-86-52 0-73 35-73 86s22 88 72 88" id="aa"/><path fill="#333" d="M76-208v77h127v40H76V0H24v-248h183v40H76" id="ab"/><g id="o"><use transform="matrix(0.04938271604938272,0,0,0.04938271604938272,0,0)" xlink:href="#Z"/><use transform="matrix(0.04938271604938272,0,0,0.04938271604938272,11.851851851851853,0)" xlink:href="#aa"/><use transform="matrix(0.04938271604938272,0,0,0.04938271604938272,25.679012345679016,0)" xlink:href="#ab"/></g><path fill="#3a414a" d="M24 0v-248h52v208h133V0H24" id="ac"/><path fill="#3a414a" d="M185-48c-13 30-37 53-82 52C43 2 14-33 14-96s30-98 90-98c62 0 83 45 84 108H66c0 31 8 55 39 56 18 0 30-7 34-22zm-45-69c5-46-57-63-70-21-2 6-4 13-4 21h74" id="ad"/><path fill="#3a414a" d="M128 0H69L1-190h53L99-40l48-150h52" id="ae"/><path fill="#3a414a" d="M25 0v-261h50V0H25" id="af"/><g id="p"><use transform="matrix(0.10493827160493824,0,0,0.10493827160493824,0,0)" xlink:href="#ac"/><use transform="matrix(0.10493827160493824,0,0,0.10493827160493824,22.981481481481474,0)" xlink:href="#ad"/><use transform="matrix(0.10493827160493824,0,0,0.10493827160493824,43.969135802469125,0)" xlink:href="#ae"/><use transform="matrix(0.10493827160493824,0,0,0.10493827160493824,64.95679012345677,0)" xlink:href="#ad"/><use transform="matrix(0.10493827160493824,0,0,0.10493827160493824,85.94444444444441,0)" xlink:href="#af"/></g><path fill="#3a414a" d="M101-251c68 0 84 54 84 127C185-50 166 4 99 4S15-52 14-124c-1-75 17-127 87-127zm-1 216c37-5 36-46 36-89s4-89-36-89c-39 0-36 45-36 89 0 43-3 85 36 89" id="ag"/><use transform="matrix(0.10493827160493824,0,0,0.10493827160493824,0,0)" xlink:href="#ag" id="q"/><path fill="#3a414a" d="M141 0L90-78 38 0H4l68-98-65-92h35l48 74 47-74h35l-64 92 68 98h-35" id="ah"/><g id="r"><use transform="matrix(0.06172839506172839,0,0,0.06172839506172839,0,0)" xlink:href="#x"/><use transform="matrix(0.06172839506172839,0,0,0.06172839506172839,12.345679012345679,0)" xlink:href="#y"/><use transform="matrix(0.06172839506172839,0,0,0.06172839506172839,24.691358024691358,0)" xlink:href="#z"/><use transform="matrix(0.06172839506172839,0,0,0.06172839506172839,37.03703703703704,0)" xlink:href="#A"/><use transform="matrix(0.06172839506172839,0,0,0.06172839506172839,43.20987654320988,0)" xlink:href="#ah"/></g><use transform="matrix(0.06172839506172839,0,0,0.06172839506172839,0,0)" xlink:href="#E" id="s"/><path fill="#3a414a" d="M179-190L93 31C79 59 56 82 12 73V49c39 6 53-20 64-50L1-190h34L92-34l54-156h33" id="ai"/><g id="t"><use transform="matrix(0.06172839506172839,0,0,0.06172839506172839,0,0)" xlink:href="#x"/><use transform="matrix(0.06172839506172839,0,0,0.06172839506172839,12.345679012345679,0)" xlink:href="#y"/><use transform="matrix(0.06172839506172839,0,0,0.06172839506172839,24.691358024691358,0)" xlink:href="#z"/><use transform="matrix(0.06172839506172839,0,0,0.06172839506172839,37.03703703703704,0)" xlink:href="#A"/><use transform="matrix(0.06172839506172839,0,0,0.06172839506172839,43.20987654320988,0)" xlink:href="#ai"/></g><g id="u"><use transform="matrix(0.06172839506172839,0,0,0.06172839506172839,0,0)" xlink:href="#x"/><use transform="matrix(0.06172839506172839,0,0,0.06172839506172839,12.345679012345679,0)" xlink:href="#y"/><use transform="matrix(0.06172839506172839,0,0,0.06172839506172839,24.691358024691358,0)" xlink:href="#z"/><use transform="matrix(0.06172839506172839,0,0,0.06172839506172839,37.03703703703704,0)" xlink:href="#A"/><use transform="matrix(0.06172839506172839,0,0,0.06172839506172839,43.20987654320988,0)" xlink:href="#G"/><use transform="matrix(0.06172839506172839,0,0,0.06172839506172839,55.55555555555556,0)" xlink:href="#T"/><use transform="matrix(0.06172839506172839,0,0,0.06172839506172839,60.4320987654321,0)" xlink:href="#R"/><use transform="matrix(0.06172839506172839,0,0,0.06172839506172839,67.77777777777779,0)" xlink:href="#y"/><use transform="matrix(0.06172839506172839,0,0,0.06172839506172839,80.12345679012347,0)" xlink:href="#P"/><use transform="matrix(0.06172839506172839,0,0,0.06172839506172839,91.23456790123458,0)" xlink:href="#C"/><use transform="matrix(0.06172839506172839,0,0,0.06172839506172839,97.40740740740742,0)" xlink:href="#T"/><use transform="matrix(0.06172839506172839,0,0,0.06172839506172839,102.28395061728396,0)" xlink:href="#H"/><use transform="matrix(0.06172839506172839,0,0,0.06172839506172839,114.62962962962965,0)" xlink:href="#z"/></g><path fill="#3a414a" d="M101-251c68 0 85 55 85 127S166 4 100 4C33 4 14-52 14-124c0-73 17-127 87-127zm-1 229c47 0 54-49 54-102s-4-102-53-102c-51 0-55 48-55 102 0 53 5 102 54 102" id="aj"/><use transform="matrix(0.06172839506172839,0,0,0.06172839506172839,0,0)" xlink:href="#aj" id="v"/><path fill="#333" d="M186 0v-106H76V0H24v-248h52v99h110v-99h50V0h-50" id="ak"/><use transform="matrix(0.04938271604938272,0,0,0.04938271604938272,0,0)" xlink:href="#ak" id="w"/></defs></g></svg>